<svg xmlns:xlink="http://www.w3.org/1999/xlink" width="512" xmlns="http://www.w3.org/2000/svg" height="512" id="screenshot-e967bc3c-91ce-80a8-8002-bca186dd7d0c" viewBox="0 0 512 512" style="-webkit-print-color-adjust: exact;" fill="none" version="1.1"><g id="shape-e967bc3c-91ce-80a8-8002-bca186dd7d0c"><defs><clipPath class="frame-clip-def frame-clip" id="frame-clip-e967bc3c-91ce-80a8-8002-bca186dd7d0c-rumext-id-1"><rect rx="0" ry="0" x="0" y="0" width="512" height="512" transform="matrix(1.000000, 0.000000, 0.000000, 1.000000, 0.000000, 0.000000)"/></clipPath></defs><g clip-path="url(#frame-clip-e967bc3c-91ce-80a8-8002-bca186dd7d0c-rumext-id-1)"><clipPath class="frame-clip-def frame-clip" id="frame-clip-e967bc3c-91ce-80a8-8002-bca186dd7d0c-rumext-id-1"><rect rx="0" ry="0" x="0" y="0" width="512" height="512" transform="matrix(1.000000, 0.000000, 0.000000, 1.000000, 0.000000, 0.000000)"/></clipPath><g class="fills" id="fills-e967bc3c-91ce-80a8-8002-bca186dd7d0c"><rect rx="0" ry="0" x="0" y="0" transform="matrix(1.000000, 0.000000, 0.000000, 1.000000, 0.000000, 0.000000)" width="512" height="512" class="frame-background"/></g><g class="frame-children"><g id="shape-e967bc3c-91ce-80a8-8002-bca01cd73c7d" height="1em" rx="0" ry="0" style="fill: rgb(0, 0, 0);"><g id="shape-e967bc3c-91ce-80a8-8002-bca01cd82df1"><g class="fills" id="fills-e967bc3c-91ce-80a8-8002-bca01cd82df1"><path class="fa-primary" rx="0" ry="0" d="M209.000,175.000C199.600,165.600,184.400,165.600,175.100,175.000C165.800,184.400,165.700,199.600,175.100,208.900L222.100,255.900L175.100,302.900C165.700,312.300,165.700,327.500,175.100,336.800C184.500,346.100,199.700,346.200,209.000,336.800L256.000,289.800L303.000,336.800C312.400,346.200,327.600,346.200,336.900,336.800C346.200,327.400,346.300,312.200,336.900,302.900L289.900,255.900L336.900,208.900C346.300,199.500,346.300,184.300,336.900,175.000C327.500,165.700,312.300,165.600,303.000,175.000L256.000,222.000L209.000,175.000ZL209.000,175.000Z" style="fill: rgb(255, 255, 255); fill-opacity: 1;"/></g></g><g id="shape-e967bc3c-91ce-80a8-8002-bca01cd8a514"><g class="fills" id="fills-e967bc3c-91ce-80a8-8002-bca01cd8a514"><path class="fa-secondary" rx="0" ry="0" d="M256.000,512.000C397.385,512.000,512.000,397.385,512.000,256.000C512.000,114.615,397.385,0.000,256.000,0.000C114.615,0.000,0.000,114.615,0.000,256.000C0.000,397.385,114.615,512.000,256.000,512.000ZZM175.000,175.000C184.400,165.600,199.600,165.600,208.900,175.000L255.900,222.000L302.900,175.000C312.300,165.600,327.500,165.600,336.800,175.000C346.100,184.400,346.200,199.600,336.800,208.900L289.800,255.900L336.800,302.900C346.200,312.300,346.200,327.500,336.800,336.800C327.400,346.100,312.200,346.200,302.900,336.800L255.900,289.800L208.900,336.800C199.500,346.200,184.300,346.200,175.000,336.800C165.700,327.400,165.600,312.200,175.000,302.900L222.000,255.900L175.000,208.900C165.600,199.500,165.600,184.300,175.000,175.000ZZ" style="fill: rgb(58, 58, 58); fill-opacity: 1;"/></g></g></g></g></g></g></svg>