<svg xmlns:xlink="http://www.w3.org/1999/xlink" width="512" xmlns="http://www.w3.org/2000/svg" height="512" id="screenshot-e967bc3c-91ce-80a8-8002-bca1852f8e9a" viewBox="0 0 512 512" style="-webkit-print-color-adjust: exact;" fill="none" version="1.1"><g id="shape-e967bc3c-91ce-80a8-8002-bca1852f8e9a"><defs><clipPath class="frame-clip-def frame-clip" id="frame-clip-e967bc3c-91ce-80a8-8002-bca1852f8e9a-rumext-id-5"><rect rx="0" ry="0" x="0" y="0" width="512" height="512" transform="matrix(1.000000, 0.000000, 0.000000, 1.000000, 0.000000, 0.000000)"/></clipPath></defs><g clip-path="url(#frame-clip-e967bc3c-91ce-80a8-8002-bca1852f8e9a-rumext-id-5)"><clipPath class="frame-clip-def frame-clip" id="frame-clip-e967bc3c-91ce-80a8-8002-bca1852f8e9a-rumext-id-5"><rect rx="0" ry="0" x="0" y="0" width="512" height="512" transform="matrix(1.000000, 0.000000, 0.000000, 1.000000, 0.000000, 0.000000)"/></clipPath><g class="fills" id="fills-e967bc3c-91ce-80a8-8002-bca1852f8e9a"><rect rx="0" ry="0" x="0" y="0" transform="matrix(1.000000, 0.000000, 0.000000, 1.000000, 0.000000, 0.000000)" width="512" height="512" class="frame-background"/></g><g class="frame-children"><g id="shape-e967bc3c-91ce-80a8-8002-bca0fffbd504"><g class="fills" id="fills-e967bc3c-91ce-80a8-8002-bca0fffbd504"><ellipse rx="256" ry="256" cx="256" cy="256" transform="matrix(1.000000, 0.000000, 0.000000, 1.000000, 0.000000, 0.000000)" style="fill: rgb(58, 58, 58); fill-opacity: 1;"/></g></g><g id="shape-e967bc3c-91ce-80a8-8002-bca04976ac13"><g class="fills" id="fills-e967bc3c-91ce-80a8-8002-bca04976ac13"><rect rx="0" ry="0" x="170" y="168" transform="matrix(1.000000, 0.000000, 0.000000, 1.000000, 0.000000, 0.000000)" width="176" height="176"/></g><g id="strokes-e967bc3c-91ce-80a8-8002-bca04976ac13" class="strokes"><g class="inner-stroke-shape" transform="matrix(1.000000, 0.000000, 0.000000, 1.000000, 0.000000, 0.000000)"><defs><clipPath id="inner-stroke-rumext-id-7-e967bc3c-91ce-80a8-8002-bca04976ac13-0"><use href="#stroke-shape-rumext-id-7-e967bc3c-91ce-80a8-8002-bca04976ac13-0"/></clipPath><rect rx="0" ry="0" x="170" y="168" width="176" height="176" id="stroke-shape-rumext-id-7-e967bc3c-91ce-80a8-8002-bca04976ac13-0" style="fill: none; stroke-width: 96; stroke: rgb(255, 255, 255); stroke-opacity: 1;"/></defs><use href="#stroke-shape-rumext-id-7-e967bc3c-91ce-80a8-8002-bca04976ac13-0" clip-path="url('#inner-stroke-rumext-id-7-e967bc3c-91ce-80a8-8002-bca04976ac13-0')"/></g></g></g></g></g></g></svg>