<svg xmlns:xlink="http://www.w3.org/1999/xlink" width="512" xmlns="http://www.w3.org/2000/svg" height="512" id="screenshot-e967bc3c-91ce-80a8-8002-bcb4091dc981" viewBox="0 0 512 512" style="-webkit-print-color-adjust: exact;" fill="none" version="1.1"><g id="shape-e967bc3c-91ce-80a8-8002-bcb4091dc981"><defs><clipPath class="frame-clip-def frame-clip" id="frame-clip-e967bc3c-91ce-80a8-8002-bcb4091dc981-rumext-id-1"><rect rx="0" ry="0" x="0" y="0" width="512" height="512" transform="matrix(1.000000, 0.000000, 0.000000, 1.000000, 0.000000, 0.000000)"/></clipPath></defs><g clip-path="url(#frame-clip-e967bc3c-91ce-80a8-8002-bcb4091dc981-rumext-id-1)"><clipPath class="frame-clip-def frame-clip" id="frame-clip-e967bc3c-91ce-80a8-8002-bcb4091dc981-rumext-id-1"><rect rx="0" ry="0" x="0" y="0" width="512" height="512" transform="matrix(1.000000, 0.000000, 0.000000, 1.000000, 0.000000, 0.000000)"/></clipPath><g class="fills" id="fills-e967bc3c-91ce-80a8-8002-bcb4091dc981"><rect rx="0" ry="0" x="0" y="0" transform="matrix(1.000000, 0.000000, 0.000000, 1.000000, 0.000000, 0.000000)" width="512" height="512" class="frame-background"/></g><g class="frame-children"><g id="shape-e967bc3c-91ce-80a8-8002-bcb4091dc982"><g class="fills" id="fills-e967bc3c-91ce-80a8-8002-bcb4091dc982"><ellipse rx="256" ry="256" cx="256" cy="256" transform="matrix(1.000000, 0.000000, 0.000000, 1.000000, 0.000000, 0.000000)"/></g></g><g id="shape-e967bc3c-91ce-80a8-8002-bcb4175784f8" height="1em" rx="0" ry="0" style="fill: rgb(0, 0, 0);"><g id="shape-e967bc3c-91ce-80a8-8002-bcb4175784fa"><g class="fills" id="fills-e967bc3c-91ce-80a8-8002-bcb4175784fa"><path rx="0" ry="0" d="M249.763,249.411C253.098,246.068,258.585,246.068,261.920,249.411L347.992,335.661C351.327,339.003,351.327,344.501,347.992,347.843C344.657,351.186,339.170,351.186,335.834,347.843L255.842,267.685L175.849,347.843C172.514,351.186,167.027,351.186,163.691,347.843C160.356,344.501,160.356,339.003,163.691,335.661L249.763,249.411ZZ" style="fill: rgb(255, 255, 255); fill-opacity: 1;"/></g></g></g><g id="shape-e967bc3c-91ce-80a8-8002-bcb4175784fb" height="1em" rx="0" ry="0" style="fill: rgb(0, 0, 0);"><g id="shape-e967bc3c-91ce-80a8-8002-bcb4175784fd"><g class="fills" id="fills-e967bc3c-91ce-80a8-8002-bcb4175784fd"><path rx="0" ry="0" d="M261.855,261.700C258.519,265.042,253.032,265.042,249.697,261.700L163.626,175.450C160.290,172.108,160.290,166.609,163.626,163.267C166.961,159.925,172.448,159.925,175.783,163.267L255.776,243.426L335.769,163.267C339.104,159.925,344.591,159.925,347.926,163.267C351.261,166.609,351.261,172.108,347.926,175.450L261.855,261.700ZZ" style="fill: rgb(255, 255, 255); fill-opacity: 1;"/></g></g></g></g></g></g></svg>