<svg xmlns:xlink="http://www.w3.org/1999/xlink" width="512" xmlns="http://www.w3.org/2000/svg" height="512" id="screenshot-e967bc3c-91ce-80a8-8002-bca24b37caec" viewBox="0 0 512 512" style="-webkit-print-color-adjust: exact;" fill="none" version="1.1"><g id="shape-e967bc3c-91ce-80a8-8002-bca24b37caec"><defs><clipPath class="frame-clip-def frame-clip" id="frame-clip-e967bc3c-91ce-80a8-8002-bca24b37caec-rumext-id-13"><rect rx="0" ry="0" x="0" y="0" width="512" height="512" transform="matrix(1.000000, 0.000000, 0.000000, 1.000000, 0.000000, 0.000000)"/></clipPath></defs><g clip-path="url(#frame-clip-e967bc3c-91ce-80a8-8002-bca24b37caec-rumext-id-13)"><clipPath class="frame-clip-def frame-clip" id="frame-clip-e967bc3c-91ce-80a8-8002-bca24b37caec-rumext-id-13"><rect rx="0" ry="0" x="0" y="0" width="512" height="512" transform="matrix(1.000000, 0.000000, 0.000000, 1.000000, 0.000000, 0.000000)"/></clipPath><g class="fills" id="fills-e967bc3c-91ce-80a8-8002-bca24b37caec"><rect rx="0" ry="0" x="0" y="0" transform="matrix(1.000000, 0.000000, 0.000000, 1.000000, 0.000000, 0.000000)" width="512" height="512" class="frame-background"/></g><g class="frame-children"><g id="shape-e967bc3c-91ce-80a8-8002-bca24b37caed"><g class="fills" id="fills-e967bc3c-91ce-80a8-8002-bca24b37caed"><ellipse rx="256" ry="256" cx="256" cy="256" transform="matrix(1.000000, 0.000000, 0.000000, 1.000000, 0.000000, 0.000000)"/></g></g><g id="shape-e967bc3c-91ce-80a8-8002-bcb3e97bf53f" height="1em" rx="0" ry="0" style="fill: rgb(0, 0, 0);"><g id="shape-e967bc3c-91ce-80a8-8002-bcb3e97bf541"><g class="fills" id="fills-e967bc3c-91ce-80a8-8002-bcb3e97bf541"><path rx="0" ry="0" d="M247.878,178.878C252.334,174.422,259.666,174.422,264.122,178.878L379.122,293.878C383.578,298.334,383.578,305.666,379.122,310.122C374.666,314.578,367.334,314.578,362.878,310.122L256.000,203.244L149.122,310.122C144.666,314.578,137.334,314.578,132.878,310.122C128.422,305.666,128.422,298.334,132.878,293.878L247.878,178.878ZZ" style="fill: rgb(255, 255, 255); fill-opacity: 1;"/></g></g></g></g></g></g></svg>