<svg xmlns:xlink="http://www.w3.org/1999/xlink" width="512" xmlns="http://www.w3.org/2000/svg" height="512" id="screenshot-e967bc3c-91ce-80a8-8002-bca24b37cae9" viewBox="0 0 512 512" style="-webkit-print-color-adjust: exact;" fill="none" version="1.1"><g id="shape-e967bc3c-91ce-80a8-8002-bca24b37cae9"><defs><clipPath class="frame-clip-def frame-clip" id="frame-clip-e967bc3c-91ce-80a8-8002-bca24b37cae9-rumext-id-7"><rect rx="0" ry="0" x="0" y="0" width="512" height="512" transform="matrix(1.000000, 0.000000, 0.000000, 1.000000, 0.000000, 0.000000)"/></clipPath></defs><g clip-path="url(#frame-clip-e967bc3c-91ce-80a8-8002-bca24b37cae9-rumext-id-7)"><clipPath class="frame-clip-def frame-clip" id="frame-clip-e967bc3c-91ce-80a8-8002-bca24b37cae9-rumext-id-7"><rect rx="0" ry="0" x="0" y="0" width="512" height="512" transform="matrix(1.000000, 0.000000, 0.000000, 1.000000, 0.000000, 0.000000)"/></clipPath><g class="fills" id="fills-e967bc3c-91ce-80a8-8002-bca24b37cae9"><rect rx="0" ry="0" x="0" y="0" transform="matrix(1.000000, 0.000000, 0.000000, 1.000000, 0.000000, 0.000000)" width="512" height="512" class="frame-background"/></g><g class="frame-children"><g id="shape-e967bc3c-91ce-80a8-8002-bca24b37caea"><g class="fills" id="fills-e967bc3c-91ce-80a8-8002-bca24b37caea"><ellipse rx="256" ry="256" cx="256" cy="256" transform="matrix(1.000000, 0.000000, 0.000000, 1.000000, 0.000000, 0.000000)"/></g></g><g id="shape-e967bc3c-91ce-80a8-8002-bcb3cedbbcd0" height="1em" rx="0" ry="0" style="fill: rgb(0, 0, 0);"><g id="shape-e967bc3c-91ce-80a8-8002-bcb3cedc2f08"><g class="fills" id="fills-e967bc3c-91ce-80a8-8002-bcb3cedc2f08"><path rx="0" ry="0" d="M247.878,132.878C252.334,128.422,259.666,128.422,264.122,132.878L379.122,247.878C383.578,252.334,383.578,259.666,379.122,264.122C374.666,268.578,367.334,268.578,362.878,264.122L256.000,157.244L149.122,264.122C144.666,268.578,137.334,268.578,132.878,264.122C128.422,259.666,128.422,252.334,132.878,247.878L247.878,132.878ZZ" style="fill: rgb(255, 255, 255); fill-opacity: 1;"/></g></g></g><g id="shape-e967bc3c-91ce-80a8-8002-bcb3eea9bf18" height="1em" rx="0" ry="0" style="fill: rgb(0, 0, 0);"><g id="shape-e967bc3c-91ce-80a8-8002-bcb3eea9bf1a"><g class="fills" id="fills-e967bc3c-91ce-80a8-8002-bcb3eea9bf1a"><path rx="0" ry="0" d="M264.122,379.122C259.666,383.578,252.334,383.578,247.878,379.122L132.878,264.122C128.422,259.666,128.422,252.334,132.878,247.878C137.334,243.422,144.666,243.422,149.122,247.878L256.000,354.756L362.878,247.878C367.334,243.422,374.666,243.422,379.122,247.878C383.578,252.334,383.578,259.666,379.122,264.122L264.122,379.122ZZ" style="fill: rgb(255, 255, 255); fill-opacity: 1;"/></g></g></g></g></g></g></svg>